<?xml version="1.0" encoding="UTF-8"?>
<svg version="1.1" xmlns="http://www.w3.org/2000/svg" width="700" height="125">
<path d="M0 0 C4.50079343 3.17084278 8.88826785 6.79106069 11 12 C10.86328125 13.94140625 10.86328125 13.94140625 10 16 C7.8203125 17.703125 7.8203125 17.703125 5.125 19.25 C4.24070312 19.77078125 3.35640625 20.2915625 2.4453125 20.828125 C0 22 0 22 -3 22 C-3.556875 20.906875 -4.11375 19.81375 -4.6875 18.6875 C-6.99515106 14.65114921 -9.51066164 12.9127574 -13.875 11.3125 C-20.4227607 10.34959402 -25.06026199 11.50789253 -31 14 C-31.99 14.33 -32.98 14.66 -34 15 C-35.13545562 17.29534258 -35.13545562 17.29534258 -36 20 C-36.5259375 21.2065625 -36.5259375 21.2065625 -37.0625 22.4375 C-40.31658248 31.33199211 -39.97100364 42.0509769 -37 51 C-35.48537267 53.8334743 -35.48537267 53.8334743 -34 56 C-34 56.66 -34 57.32 -34 58 C-32.34015202 58.68346682 -30.67163195 59.34588315 -29 60 C-28.13375 60.391875 -27.2675 60.78375 -26.375 61.1875 C-20.21724973 62.66992136 -14.35166701 62.02618197 -8.5625 59.5 C-5.11524242 56.13682187 -3.62680288 52.47849264 -2 48 C3.23206083 48.6540076 5.79117544 50.39558772 11 53 C11.33 34.52 11.66 16.04 12 -3 C17.28 -3 22.56 -3 28 -3 C28 18.45 28 39.9 28 62 C39.55 62 51.1 62 63 62 C63 40.55 63 19.1 63 -3 C80.49 -3 97.98 -3 116 -3 C116 1.62 116 6.24 116 11 C104.12 11 92.24 11 80 11 C80 16.61 80 22.22 80 28 C90.23 28 100.46 28 111 28 C111 32.62 111 37.24 111 42 C100.77 42 90.54 42 80 42 C80 48.6 80 55.2 80 62 C91.22 62 102.44 62 114 62 C114.99 58.7 115.98 55.4 117 52 C117.61044289 50.11392972 118.2312783 48.23113956 118.86938477 46.35424805 C119.20305557 45.37010422 119.53672638 44.38596039 119.88050842 43.37199402 C120.23060471 42.34560318 120.58070099 41.31921234 120.94140625 40.26171875 C121.30975082 39.17792435 121.6780954 38.09412994 122.05760193 36.97749329 C122.8307477 34.70402033 123.60477242 32.43084612 124.37963867 30.15795898 C125.56472153 26.68098213 126.74642455 23.20286969 127.92773438 19.72460938 C128.68209181 17.50774448 129.43664234 15.29094528 130.19140625 13.07421875 C130.71958702 11.51945076 130.71958702 11.51945076 131.25843811 9.93327332 C131.58895676 8.96489029 131.9194754 7.99650726 132.26000977 6.9987793 C132.5485231 6.15179977 132.83703644 5.30482025 133.1342926 4.43217468 C134.02465417 1.93073497 135.01389345 -0.53473363 136 -3 C142.93 -3 149.86 -3 157 -3 C160.20261011 4.80073508 163.03374256 12.6874806 165.765625 20.6640625 C166.20809556 21.95021927 166.65078757 23.23629988 167.09368896 24.52230835 C168.2466244 27.87186703 169.39659225 31.2224368 170.54589844 34.57324219 C171.72408496 38.00648752 172.90513965 41.43874585 174.0859375 44.87109375 C176.39339815 51.57977784 178.69771828 58.28953666 181 65 C181.01030746 64.16283951 181.02061493 63.32567902 181.03123474 62.46315002 C181.12903782 54.59025264 181.23152725 46.71743342 181.33933926 38.84466648 C181.39460529 34.79678183 181.44803102 30.74889 181.49731445 26.70092773 C181.54490393 22.79757638 181.5972445 18.89431551 181.65294075 14.9910717 C181.67338894 13.49868955 181.69209787 12.00628257 181.70907402 10.51385689 C181.7330638 8.43045151 181.76312519 6.3472186 181.79467773 4.26391602 C181.81022202 3.07588882 181.8257663 1.88786163 181.84178162 0.66383362 C182 -2 182 -2 183 -3 C198.2449923 -4.80739599 198.2449923 -4.80739599 203.328125 -1.47265625 C205.21319596 1.23594319 206.56721655 4.02421898 208 7 C209.35311356 9.3306887 210.75412647 11.62868489 212.15869141 13.92871094 C213.61185406 16.31336431 215.03163726 18.71517425 216.44921875 21.12109375 C221.50536262 29.49237705 226.77769665 37.73135304 232 46 C232.33 29.83 232.66 13.66 233 -3 C238.28 -3 243.56 -3 249 -3 C249 23.07 249 49.14 249 76 C243.39 76 237.78 76 232 76 C228.79741196 72.61741497 227.72416369 71.03640251 226 67 C225.03429546 65.40634158 224.04279485 63.82805628 223.02734375 62.265625 C221.99578869 60.59474114 220.9658529 58.92285655 219.9375 57.25 C218.92587884 55.60931482 217.91415379 53.9686937 216.90234375 52.328125 C216.3388623 51.41353516 215.77538086 50.49894531 215.19482422 49.55664062 C210.14233438 41.36341385 205.06803625 33.18361534 200 25 C199.98969254 25.6241832 199.97938507 26.24836639 199.96876526 26.89146423 C199.86093467 33.36354552 199.74631853 39.83548093 199.62768555 46.30737305 C199.58426122 48.72563639 199.54259188 51.1439319 199.50268555 53.56225586 C199.44516397 57.02988396 199.38141813 60.49734903 199.31640625 63.96484375 C199.29969376 65.05337143 199.28298126 66.14189911 199.26576233 67.26341248 C199.24581711 68.26437454 199.22587189 69.26533661 199.20532227 70.29663086 C199.18977798 71.18265488 199.1742337 72.06867889 199.15821838 72.98155212 C199 75 199 75 198 76 C195.70848583 76.08790975 193.41427476 76.10694038 191.12109375 76.09765625 C190.09110008 76.09553383 190.09110008 76.09553383 189.04029846 76.09336853 C186.83932199 76.08775479 184.63844591 76.07520007 182.4375 76.0625 C180.94856917 76.05748676 179.45963676 76.05292355 177.97070312 76.04882812 C174.31376925 76.03778093 170.65689442 76.02050713 167 76 C166.37041826 74.48105765 165.74659536 72.95972805 165.125 71.4375 C164.77695312 70.59058594 164.42890625 69.74367188 164.0703125 68.87109375 C162.86665237 65.64229743 161.94664944 62.31327304 161 59 C151.43 58.67 141.86 58.34 132 58 C131.01 61.63 130.02 65.26 129 69 C128.01 71.31 127.02 73.62 126 76 C88.38 76 50.76 76 12 76 C11.67 70.39 11.34 64.78 11 59 C10.34 60.175625 9.68 61.35125 9 62.5625 C4.87030183 69.10505553 -0.59154994 74.4550875 -8.19140625 76.5625 C-20.82446136 78.53037507 -32.51525795 77.59860882 -43.3125 70.3125 C-50.67562129 64.32241977 -54.71935955 55.93751484 -56.6875 46.8125 C-57.8630527 32.47075712 -57.08965406 18.78446914 -48 7 C-36.58183427 -5.67772358 -14.68628373 -8.27464421 0 0 Z M146 14 C144.71248643 17.78834888 143.43090931 21.57864846 142.15478516 25.37084961 C141.71988772 26.66046159 141.28337578 27.94953029 140.84521484 29.23803711 C140.21547426 31.0908453 139.59202743 32.94578889 138.96875 34.80078125 C138.59169922 35.91622314 138.21464844 37.03166504 137.82617188 38.1809082 C136.8593826 40.99020971 136.8593826 40.99020971 137 44 C143.27 44 149.54 44 156 44 C154.39218839 36.63777506 154.39218839 36.63777506 152.2734375 29.52734375 C151.9640625 28.60888672 151.6546875 27.69042969 151.3359375 26.74414062 C151.01882813 25.81794922 150.70171875 24.89175781 150.375 23.9375 C150.05015625 22.97650391 149.7253125 22.01550781 149.390625 21.02539062 C148.59788808 18.68215356 147.80095424 16.34043824 147 14 C146.67 14 146.34 14 146 14 Z M182 68 C183 70 183 70 183 70 Z " fill="#000000" transform="translate(326,26)"/>
<path d="M0 0 C0.66 -1.32 1.32 -2.64 2 -4 C22.13 -4 42.26 -4 63 -4 C63 0.62 63 5.24 63 10 C55.74 10 48.48 10 41 10 C40.67 31.45 40.34 52.9 40 75 C34.72 75 29.44 75 24 75 C24 53.55 24 32.1 24 10 C16.41 10 8.82 10 1 10 C0.34 11.32 -0.32 12.64 -1 14 C-1.33 14.66 -1.66 15.32 -2 16 C-5.70317711 15.20646205 -8.67622536 13.70325528 -12 11.9375 C-16.47954223 9.83771458 -21.09902637 9.44499531 -26 10 C-29.79781191 11.53413413 -29.79781191 11.53413413 -33 14 C-33.46335782 18.07722048 -33.46335782 18.07722048 -31.75 21.60546875 C-29.75028805 23.19898921 -28.2121653 23.76333569 -25.75 24.4375 C-24.87085938 24.68757813 -23.99171875 24.93765625 -23.0859375 25.1953125 C-20.82827193 25.78402023 -18.5610123 26.33626871 -16.2890625 26.8671875 C-7.35186506 28.9908225 -0.06396434 31.38084462 5.4375 39.1875 C8.79086393 45.22355507 8.68346815 51.24211266 8 58 C6.12365116 63.85483124 3.43039736 68.86243708 -2 72 C-2.6290625 72.36867188 -3.258125 72.73734375 -3.90625 73.1171875 C-13.63965174 77.9505548 -26.31490977 77.46847739 -36.5625 74.4375 C-41.96959291 72.31382284 -47.13960134 69.41057424 -51 65 C-51.984375 62.609375 -51.984375 62.609375 -52 60 C-50.34765625 57.32421875 -50.34765625 57.32421875 -48.0625 54.6875 C-47.31097656 53.80449219 -46.55945313 52.92148438 -45.78515625 52.01171875 C-45.19605469 51.34785156 -44.60695312 50.68398437 -44 50 C-41.25086924 51.2585683 -39.79082373 52.21468091 -37.625 54.4375 C-32.5436486 59.39786684 -27.61554779 60.59300077 -20.69921875 61.07421875 C-16.75335817 60.96572186 -14.39250675 59.99125396 -11 58 C-9.45413124 54.90826248 -9.70640479 52.40570448 -10 49 C-13.78559962 43.26125043 -21.43691821 42.83983403 -27.671875 41.37695312 C-35.99178678 39.30262729 -43.16170199 36.4435354 -48 29 C-50.7771972 23.15273752 -50.74504874 17.35211655 -50 11 C-47.68587333 4.77271492 -43.01780212 0.18033901 -37.21484375 -2.96875 C-26.1657709 -7.56720807 -9.93822222 -6.62548148 0 0 Z " fill="#010101" transform="translate(197,27)"/>
<path d="M0 0 C47.45733042 0 47.45733042 0 57.90625 9.78515625 C67.48848037 19.99672802 68.39767816 30.94533233 68.2109375 44.3203125 C68.04067131 49.62799324 67.26536385 54.16893998 65 59 C64.5978125 59.85980469 64.195625 60.71960938 63.78125 61.60546875 C59.13839809 70.33660969 52.10118557 74.67456681 43 78 C28.94121013 80.81175797 14.33720878 79 0 79 C0 52.93 0 26.86 0 0 Z M17 14 C15.48927925 30.83374555 14.93615365 48.194394 17 65 C31.82709112 65.81771716 31.82709112 65.81771716 44.875 59.6875 C51.62053826 51.15637809 51.59341781 42.4333641 51 32 C49.70218276 24.65251497 46.63843012 20.54690108 40.5 16.25 C35.41112361 13.70556181 30.27329201 13.87260697 24.6875 13.9375 C23.57665039 13.94426758 23.57665039 13.94426758 22.44335938 13.95117188 C20.62887101 13.96287825 18.81442466 13.98081102 17 14 Z " fill="#000000" transform="translate(9,23)"/>
<path d="M0 0 C43 0 43 0 50.8125 4.6875 C55.47693591 9.6184751 57.25078892 14.19395935 57.5 21 C57.27494226 26.41502559 56.56546144 30.78882508 53 35 C50.14819024 37.28733795 47.18169247 39.20519912 44 41 C44.721875 41.433125 45.44375 41.86625 46.1875 42.3125 C54.68454826 50.43190167 57.84469147 65.9064987 61 77 C61 77.66 61 78.32 61 79 C55.39 79 49.78 79 44 79 C42.21080425 74.82520992 40.62130031 71.09353135 39.31640625 66.828125 C39.02830078 65.91675781 38.74019531 65.00539063 38.44335938 64.06640625 C37.8520111 62.17566521 37.26877826 60.28236839 36.69335938 58.38671875 C36.40396484 57.48050781 36.11457031 56.57429688 35.81640625 55.640625 C35.43657593 54.41134277 35.43657593 54.41134277 35.04907227 53.15722656 C33.95539287 50.49046293 33.95539287 50.49046293 30 48 C25.71 47.67 21.42 47.34 17 47 C17 57.56 17 68.12 17 79 C11.39 79 5.78 79 0 79 C0 52.93 0 26.86 0 0 Z M17 13 C17 19.6 17 26.2 17 33 C21.33125 33.061875 21.33125 33.061875 25.75 33.125 C26.65331055 33.14320801 27.55662109 33.16141602 28.48730469 33.18017578 C29.20821289 33.1851709 29.92912109 33.19016602 30.671875 33.1953125 C31.77160645 33.21102295 31.77160645 33.21102295 32.89355469 33.22705078 C35.33295899 32.96411082 36.90871583 32.26482584 39 31 C41.54594764 27.56297069 41.36399464 24.14953888 41 20 C39.62464258 16.56160644 38.7945838 15.34171833 35.375 13.87109375 C31.55925808 12.88624369 28.02791769 12.77744864 24.125 12.875 C20.598125 12.936875 20.598125 12.936875 17 13 Z " fill="#000000" transform="translate(637,23)"/>
<path d="M0 0 C17.49 0 34.98 0 53 0 C53 4.62 53 9.24 53 14 C41.12 14 29.24 14 17 14 C17 19.61 17 25.22 17 31 C19.22621094 30.98839844 21.45242188 30.97679688 23.74609375 30.96484375 C25.89396014 30.95705278 28.04182497 30.95097625 30.18969727 30.94506836 C31.68644918 30.94002879 33.18319616 30.93319713 34.67993164 30.92456055 C36.82699807 30.91247841 38.97399962 30.90676809 41.12109375 30.90234375 C43.06133423 30.89448853 43.06133423 30.89448853 45.04077148 30.88647461 C48 31 48 31 49 32 C49.09873816 33.99799572 49.12971799 35.99957158 49.125 38 C49.12886719 39.6396875 49.12886719 39.6396875 49.1328125 41.3125 C49 44 49 44 48 45 C45.70848583 45.08790975 43.41427476 45.10694038 41.12109375 45.09765625 C40.09110008 45.09553383 40.09110008 45.09553383 39.04029846 45.09336853 C36.83932199 45.08775479 34.63844591 45.07520007 32.4375 45.0625 C30.94856917 45.05748676 29.45963676 45.05292355 27.97070312 45.04882812 C24.31373195 45.03863021 20.65697883 45.01905779 17 45 C17 51.6 17 58.2 17 65 C29.21 65 41.42 65 54 65 C54 69.62 54 74.24 54 79 C36.18 79 18.36 79 0 79 C0 52.93 0 26.86 0 0 Z " fill="#000000" transform="translate(582,23)"/>
<path d="M0 0 C5.28 0 10.56 0 16 0 C16.01458252 1.56363281 16.02916504 3.12726562 16.04418945 4.73828125 C16.10232781 10.5606123 16.17956053 16.38256291 16.26245117 22.20458984 C16.29562736 24.72047738 16.32368184 27.23643803 16.34643555 29.75244141 C16.38011518 33.37694344 16.43243991 37.00077979 16.48828125 40.625 C16.49467117 41.74302002 16.5010611 42.86104004 16.50764465 44.01293945 C16.62603788 50.35599712 17.25007568 55.24935759 20 61 C23.90353933 64.55910939 28.85765478 65.1414561 34 65 C38.31050427 64.17733278 41.86179897 63.13820103 45 60 C46.7886742 56.4226516 47.14212939 53.55563638 47.20532227 49.6105957 C47.22526749 48.50968094 47.24521271 47.40876617 47.26576233 46.27449036 C47.28247482 45.08691635 47.29918732 43.89934235 47.31640625 42.67578125 C47.33718735 41.45924362 47.35796844 40.24270599 47.37937927 38.98930359 C47.44484717 35.09709404 47.50374715 31.20481615 47.5625 27.3125 C47.60568782 24.67642518 47.6493022 22.04035731 47.69335938 19.40429688 C47.80052578 12.93627049 47.90229745 6.46817589 48 0 C50.64590014 -0.02684679 53.29153096 -0.04676357 55.9375 -0.0625 C56.69224609 -0.07087891 57.44699219 -0.07925781 58.22460938 -0.08789062 C60.14994313 -0.09652441 62.07535581 -0.05224333 64 0 C65 1 65 1 65.10920715 3.25486755 C65.10128647 4.25284866 65.09336578 5.25082977 65.08520508 6.27905273 C65.0744268 7.97232948 65.0744268 7.97232948 65.06343079 9.69981384 C65.04170052 11.5480349 65.04170052 11.5480349 65.01953125 13.43359375 C65.00540695 14.69583267 64.99128265 15.95807159 64.97673035 17.25856018 C64.94352322 19.94126372 64.9074734 22.62379285 64.86791992 25.30639648 C64.8189247 28.71882288 64.7924809 32.13101859 64.77148914 35.54371548 C64.74600233 38.81973909 64.69326841 42.09534639 64.64453125 45.37109375 C64.64016556 46.58502304 64.63579987 47.79895233 64.63130188 49.04966736 C64.44875023 58.25604722 63.02540573 65.96758426 56.6875 72.9375 C47.90813295 80.927288 36.38048137 80.64536494 25.17626953 80.17919922 C18.05718228 79.59299661 11.62146539 76.66663285 6.43359375 71.77734375 C1.67972044 65.88357711 -0.12995023 58.73750205 -0.11352539 51.31347656 C-0.11344986 50.17259583 -0.11337433 49.03171509 -0.11329651 47.85626221 C-0.10813522 46.63010193 -0.10297394 45.40394165 -0.09765625 44.140625 C-0.0962413 42.88111023 -0.09482635 41.62159546 -0.09336853 40.32391357 C-0.08872073 36.98334881 -0.07974281 33.64285279 -0.06866455 30.30230713 C-0.05841598 26.8903462 -0.05386354 23.47837815 -0.04882812 20.06640625 C-0.03779963 13.37758275 -0.02053524 6.68880079 0 0 Z " fill="#000000" transform="translate(80,23)"/>
<path d="M0 0 C0.33 0 0.66 0 1 0 C1 4.95 1 9.9 1 15 C0.67 15 0.34 15 0 15 C0 10.05 0 5.1 0 0 Z " fill="#000000" transform="translate(78,55)"/>
<path d="M0 0 C1 4 1 4 1 4 Z " fill="#000000" transform="translate(268,71)"/>
<path d="" fill="#000000" transform="translate(0,0)"/>
<path d="" fill="#000000" transform="translate(0,0)"/>
<path d="" fill="#000000" transform="translate(0,0)"/>
<path d="" fill="#000000" transform="translate(0,0)"/>
<path d="" fill="#000000" transform="translate(0,0)"/>
<path d="" fill="#000000" transform="translate(0,0)"/>
<path d="" fill="#000000" transform="translate(0,0)"/>
<path d="" fill="#000000" transform="translate(0,0)"/>
</svg>
